<?xml version="1.0" encoding="iso-8859-1"?>
<!-- Uploaded to: SVG Repo, www.svgrepo.com, Generator: SVG Repo Mixer Tools -->
<svg fill="#000000" height="800px" width="800px" version="1.1" id="Layer_1" xmlns="http://www.w3.org/2000/svg" xmlns:xlink="http://www.w3.org/1999/xlink" 
	 viewBox="0 0 512 512" xml:space="preserve">
<g>
	<g>
		<path d="M0,79.175v353.65h512V79.175H0z M263.918,190.513c32.659,3.926,58.062,31.787,58.062,65.487
			c0,33.7-25.403,61.561-58.062,65.487V190.513z M15.835,200.577h58.062v110.845H15.835V200.577z M248.082,321.487
			c-32.659-3.926-58.062-31.787-58.062-65.487c0-33.7,25.403-61.561,58.062-65.487V321.487z M248.082,174.575
			c-41.411,3.996-73.897,38.984-73.897,81.425s32.486,77.428,73.897,81.425v79.565H15.835v-89.732h73.897v-21.745
			c23.9-3.808,42.227-24.558,42.227-49.513c0-24.955-18.326-45.705-42.227-49.513v-21.745H15.835V95.01h232.247V174.575z
			 M89.732,289.377v-66.754c15.112,3.585,26.392,17.184,26.392,33.377S104.844,285.792,89.732,289.377z M496.165,311.423h-58.062
			V200.577h58.062V311.423z M496.165,184.742h-73.897v21.745c-23.9,3.808-42.227,24.558-42.227,49.513
			c0,24.955,18.326,45.705,42.227,49.513v21.745h73.897v89.732H263.918v-79.565c41.411-3.996,73.897-38.984,73.897-81.425
			s-32.486-77.428-73.897-81.425V95.01h232.247V184.742z M422.268,222.623v66.754c-15.112-3.585-26.392-17.184-26.392-33.377
			S407.156,226.208,422.268,222.623z"/>
	</g>
</g>
</svg>