<?xml version="1.0" standalone="no"?>
<!DOCTYPE svg PUBLIC "-//W3C//DTD SVG 20010904//EN"
 "http://www.w3.org/TR/2001/REC-SVG-20010904/DTD/svg10.dtd">
<svg version="1.0" xmlns="http://www.w3.org/2000/svg"
 width="1200.000000pt" height="1200.000000pt" viewBox="0 0 1200.000000 1200.000000"
 preserveAspectRatio="xMidYMid meet">

<g transform="translate(0.000000,1200.000000) scale(0.100000,-0.100000)"
fill="#000000" stroke="none">
<path d="M5625 11719 c-1716 -114 -3277 -982 -4285 -2383 -515 -716 -865
-1569 -1000 -2436 -329 -2117 518 -4203 2225 -5487 1413 -1062 3242 -1408
4960 -938 1848 506 3336 1930 3928 3760 457 1412 346 2960 -308 4290 -468 952
-1200 1764 -2100 2331 -805 506 -1723 801 -2690 864 -180 11 -550 11 -730 -1z
m945 -74 c426 -46 803 -125 1180 -247 l124 -40 147 -119 c430 -348 727 -654
934 -964 41 -60 71 -113 67 -116 -4 -3 -34 -16 -67 -29 -90 -35 -354 -168
-495 -250 -163 -95 -419 -264 -649 -429 l-184 -132 -46 22 c-600 285 -1226
447 -2176 564 -159 19 -310 38 -333 41 -43 5 -45 7 -120 125 -329 513 -519
769 -702 943 l-62 59 23 18 c13 10 71 45 129 78 358 203 894 370 1580 490 76
14 474 5 650 -14z m-1020 3 c-579 -125 -1049 -299 -1369 -508 -84 -54 -143
-83 -276 -133 -356 -134 -729 -305 -1060 -487 -166 -91 -524 -302 -657 -386
-52 -33 -69 -40 -77 -30 -11 14 40 67 185 193 848 735 1933 1212 3044 1337
236 27 285 30 210 14z m2814 -489 c164 -74 380 -189 564 -300 1040 -627 1855
-1576 2321 -2703 l41 -98 -42 34 c-130 105 -282 180 -429 212 -18 4 -40 26
-71 73 -121 182 -359 483 -552 698 -153 170 -549 565 -827 826 -237 221 -272
258 -319 336 -168 273 -490 627 -825 908 -71 59 -139 117 -150 127 -21 20 86
-22 289 -113z m-6298 -1142 c-46 -79 -199 -394 -250 -515 -162 -385 -276 -870
-276 -1169 l0 -55 -106 -111 c-375 -394 -675 -905 -879 -1500 -31 -89 -71
-218 -89 -287 l-33 -125 -48 -8 c-26 -4 -49 -6 -51 -4 -6 6 14 270 32 422 120
1026 519 1998 1154 2815 124 160 229 281 392 453 129 136 142 147 157 132 15
-14 14 -18 -3 -48z m3279 -162 c903 -105 1653 -294 2169 -546 l90 -44 32 -90
c362 -999 507 -1394 611 -1669 69 -182 130 -347 136 -367 10 -35 9 -36 -98
-175 -444 -572 -1039 -1208 -1601 -1710 l-91 -82 -224 39 c-486 85 -1120 193
-1663 284 -452 75 -571 98 -581 112 -42 57 -240 421 -329 603 -280 576 -426
1090 -455 1605 -6 94 -7 207 -3 251 l8 82 64 78 c280 343 704 787 1329 1391
l284 275 51 -6 c28 -3 150 -17 271 -31z m5591 -1647 c100 -36 238 -124 332
-212 l71 -68 50 -151 c129 -395 207 -764 258 -1217 14 -122 17 -240 17 -560 0
-320 -3 -438 -17 -560 -41 -366 -100 -672 -188 -984 -48 -170 -141 -452 -154
-464 -3 -4 -16 0 -28 8 -138 89 -338 194 -424 224 -48 16 -46 4 -73 421 -56
857 -150 1396 -325 1849 l-55 143 41 107 c81 215 155 506 264 1031 109 529 95
475 124 468 14 -3 62 -19 107 -35z m-8785 -42 c101 -9 312 -20 469 -26 157 -6
355 -15 440 -20 85 -6 169 -10 187 -10 l33 0 0 -159 c0 -657 233 -1399 691
-2196 50 -88 93 -165 96 -172 2 -6 -27 -53 -65 -105 -153 -206 -341 -502 -490
-770 -105 -188 -326 -636 -441 -893 l-89 -200 -309 2 c-520 3 -791 41 -1058
148 -130 52 -289 147 -377 225 -102 89 -291 421 -410 720 -135 337 -262 835
-343 1341 l-17 106 32 129 c17 71 60 215 95 319 205 617 520 1157 900 1541
l90 91 191 -28 c106 -15 274 -35 375 -43z m6775 -1230 c652 -175 996 -259
1279 -311 77 -14 143 -29 147 -33 14 -14 98 -244 137 -375 122 -415 196 -936
246 -1734 l17 -262 -239 -323 c-473 -640 -639 -845 -892 -1099 -168 -167 -286
-266 -403 -336 -76 -46 -197 -58 -573 -57 -321 0 -436 10 -690 60 -263 51
-543 139 -768 240 -67 31 -134 60 -150 66 -15 5 -29 20 -32 31 -2 12 -23 211
-45 442 -90 929 -168 1406 -304 1846 l-14 47 126 113 c180 161 814 796 973
974 235 264 452 524 651 783 l47 61 48 -14 c26 -7 224 -61 439 -119z m-7697
-3014 c233 -182 517 -291 882 -337 99 -13 554 -31 865 -35 46 0 33 16 402
-466 456 -594 760 -901 1210 -1222 62 -44 118 -82 123 -84 7 -2 2 -43 -13
-108 -20 -96 -23 -130 -22 -385 0 -262 4 -326 37 -574 3 -19 -72 -38 -204 -51
-277 -28 -662 71 -1062 274 -844 428 -1550 1039 -2096 1815 -99 141 -111 161
-92 161 5 0 21 4 34 9 l25 10 -49 143 c-80 239 -117 472 -105 674 6 121 16
204 23 204 3 0 22 -13 42 -28z m6066 -1322 c462 -186 971 -274 1470 -256 105
4 223 11 264 15 l74 7 -6 -135 c-17 -372 -101 -705 -233 -932 -20 -33 -34 -62
-32 -65 3 -2 53 -7 112 -11 l108 -6 -61 -39 c-202 -128 -552 -308 -801 -413
-410 -172 -873 -302 -1310 -369 -350 -54 -447 -60 -880 -60 -403 -1 -406 0
-531 27 -187 39 -351 92 -464 147 -109 54 -220 138 -228 173 -3 12 -16 108
-27 212 -36 320 -29 626 17 813 15 61 18 65 60 83 72 31 348 130 663 239 743
256 1078 410 1391 638 l94 69 75 -35 c41 -19 152 -65 245 -102z"/>
</g>
</svg>
