<?xml version="1.0" encoding="UTF-8"?>
<!-- Uploaded to: SVG Find, www.svgrepo.com, Generator: SVG Find Mixer Tools -->
<svg fill="#000000" width="800px" height="800px" version="1.1" viewBox="144 144 512 512" xmlns="http://www.w3.org/2000/svg">
 <path d="m529.37 184.53c-1.6211-0.80859-3.5078-0.53906-4.8594 0.71875l-56.32 53.168c-0.89844 0.80859-1.3477 1.9805-1.3477 3.1484l0.17969 24.473c0 1.6211 0.89844 3.1484 2.4297 3.8672l0.17969 0.089844-20.242 40.664c-8.0977-8.9062-15.926-16.734-22.852-23.031-0.089843-0.089844-0.17969-0.17969-0.26953-0.26953-2.6992-2.4297-14.305-12.414-16.375-14.125-5.668-4.5898-13.586-4.5898-19.254 0-1.4414 1.168-14.664 12.504-16.734 14.395-0.089844 0-0.089844 0.089844-0.089844 0.17969-6.9258 6.2969-14.754 14.035-22.762 22.941l-20.332-40.664 0.17969-0.089844c1.4414-0.71875 2.3398-2.1602 2.4297-3.8672l0.17969-24.473c0-1.168-0.44922-2.3398-1.3477-3.1484l-56.32-53.168c-1.3477-1.2578-3.2383-1.5312-4.8594-0.71875-1.6211 0.80859-2.5195 2.5195-2.3398 4.3203l8.5469 77.012c0.089844 1.168 0.71875 2.25 1.7109 2.9688l19.613 14.574c0.71875 0.53906 1.6211 0.80859 2.6094 0.80859 0.62891 0 1.3477-0.17969 1.8906-0.44922l0.17969-0.089844 26.629 53.441c-19.613 27.441-35.988 61.176-35.988 97.793 0 39.855 19.344 76.383 41.293 105.08l-29.777 59.738c-0.53906 0.98828-0.62891 2.25-0.26953 3.3281 0.35938 1.0781 1.168 1.9805 2.1602 2.5195l19.973 9.9844c0.62891 0.26953 1.2578 0.44922 1.8906 0.44922 1.6211 0 3.0586-0.89844 3.8672-2.3398l24.02-48.043c7.7383 10.258 31.758 29.508 33.738 31.129 2.7891 2.25 6.207 3.418 9.625 3.418s6.7461-1.168 9.625-3.418c7.2891-5.8477 19.883-16.645 33.648-31.039l23.93 48.043c0.45312 1.1641 1.9844 2.0664 3.6016 2.0664 0.62891 0 1.2578-0.17969 1.8906-0.44922l19.973-9.9844c0.98828-0.53906 1.8008-1.4414 2.1602-2.5195s0.26953-2.25-0.26953-3.3281l-29.777-59.738c21.953-28.699 41.293-65.227 41.293-105.08 0-36.617-16.285-70.352-35.988-97.793l26.629-53.352 0.17969 0.089844c0.62891 0.26953 1.2578 0.44922 1.8906 0.44922 0.89844 0 1.8008-0.26953 2.6094-0.80859l19.613-14.574c0.98828-0.71875 1.6211-1.8008 1.7109-2.9688l8.5469-77.012c0.35938-1.7969-0.63281-3.5078-2.25-4.3164zm-110.21 205.03-35.535-27.711 35.535-27.711zm0 145.84-35.535-27.801 35.535-27.621zm-38.234-91.855 35.535 27.711-35.535 27.531zm0-72.875 35.535 27.711-35.535 27.531zm38.234 91.766-35.535-27.711 35.535-27.621zm-2.6992 81.781-35.535 27.531v-55.328zm2.6992 8.8164v24.109c-4.9492 4.5-9.9844 8.7266-14.934 12.684-2.5195 1.9805-5.9375 1.9805-8.457 0-3.7773-3.0586-7.6484-6.3867-11.516-9.8047zm-38.234-199.91v-55.418l35.535 27.711zm38.234-36.523-34.727-27.078c4.5-3.957 8.457-7.2891 11.426-9.625 1.2578-0.98828 2.7891-1.5312 4.2266-1.5312 4.9492 0 18.621 13.855 19.074 14.215zm-133.96-53.531-7.0156-63.516 46.422 43.812-0.089844 19.973-23.211 11.605zm25.277 16.824 12.324-6.1172 21.863 43.902c-3.1484 3.7773-6.3867 7.6484-9.5352 11.695zm12.777 82.859c13.945 24.562 20.961 48.762 20.961 72.152s-7.0156 47.684-20.961 72.152c-12.324-21.773-21.141-46.242-21.141-72.152s8.8164-50.383 21.141-72.152zm3.6875 243.09-12.324-6.1172 26.09-52.27c3.2383 3.957 6.4766 7.7383 9.7148 11.336zm1.2617-90.414c16.285-27.258 24.562-54.34 24.562-80.609 0-26.27-8.2773-53.352-24.562-80.52 13.496-21.594 30.047-39.945 44.082-53.621v268.28c-14.035-13.492-30.5-31.938-44.082-53.527zm99.59 53.617v-268.37c14.035 13.586 30.5 32.027 44.082 53.621-16.375 27.168-24.652 54.25-24.652 80.609s8.3672 53.441 24.742 80.609c-13.672 21.5-30.137 39.945-44.172 53.527zm57.578 30.68-12.324 6.1172-23.48-47.051c3.2383-3.5977 6.4766-7.3789 9.7148-11.336zm-8.5469-92.664c-13.945-24.473-21.051-48.762-21.051-72.152 0-23.48 7.1055-47.684 21.051-72.152 12.324 21.773 21.141 46.242 21.141 72.242 0.003906 25.82-8.8125 50.289-21.141 72.062zm-11.965-177.77c-3.1484-4.0469-6.2969-8.0078-9.5352-11.695l21.863-43.812 12.234 6.1172zm50.023-66.215-16.016 11.875-23.211-11.605-0.089844-19.973 46.422-43.812z"/>
</svg>